<?xml version="1.0" encoding="utf-8"?>
<svg xmlns="http://www.w3.org/2000/svg" xmlns:xlink="http://www.w3.org/1999/xlink" width="2400" height="1800" viewBox="0 0 9600 7200">
<defs>
  <clipPath id="clip320">
    <rect x="0" y="0" width="9600" height="7200"/>
  </clipPath>
</defs>
<path clip-path="url(#clip320)" d="M0 7200 L9600 7200 L9600 0 L0 0  Z" fill="#ffffff" fill-rule="evenodd" fill-opacity="1"/>
<defs>
  <clipPath id="clip321">
    <rect x="1920" y="0" width="6721" height="6721"/>
  </clipPath>
</defs>
<path clip-path="url(#clip320)" d="M315.963 6961.74 L9552.76 6961.74 L9552.76 127.477 L315.963 127.477  Z" fill="#ffffff" fill-rule="evenodd" fill-opacity="1"/>
<defs>
  <clipPath id="clip322">
    <rect x="315" y="127" width="9238" height="6835"/>
  </clipPath>
</defs>
<polyline clip-path="url(#clip322)" style="stroke:#000000; stroke-linecap:round; stroke-linejoin:round; stroke-width:2; stroke-opacity:0.1; fill:none" points="1128.47,6961.74 1128.47,127.477 "/>
<polyline clip-path="url(#clip322)" style="stroke:#000000; stroke-linecap:round; stroke-linejoin:round; stroke-width:2; stroke-opacity:0.1; fill:none" points="1889.65,6961.74 1889.65,127.477 "/>
<polyline clip-path="url(#clip322)" style="stroke:#000000; stroke-linecap:round; stroke-linejoin:round; stroke-width:2; stroke-opacity:0.1; fill:none" points="2650.83,6961.74 2650.83,127.477 "/>
<polyline clip-path="url(#clip322)" style="stroke:#000000; stroke-linecap:round; stroke-linejoin:round; stroke-width:2; stroke-opacity:0.1; fill:none" points="3412.01,6961.74 3412.01,127.477 "/>
<polyline clip-path="url(#clip322)" style="stroke:#000000; stroke-linecap:round; stroke-linejoin:round; stroke-width:2; stroke-opacity:0.1; fill:none" points="4173.18,6961.74 4173.18,127.477 "/>
<polyline clip-path="url(#clip322)" style="stroke:#000000; stroke-linecap:round; stroke-linejoin:round; stroke-width:2; stroke-opacity:0.1; fill:none" points="4934.36,6961.74 4934.36,127.477 "/>
<polyline clip-path="url(#clip322)" style="stroke:#000000; stroke-linecap:round; stroke-linejoin:round; stroke-width:2; stroke-opacity:0.1; fill:none" points="5695.54,6961.74 5695.54,127.477 "/>
<polyline clip-path="url(#clip322)" style="stroke:#000000; stroke-linecap:round; stroke-linejoin:round; stroke-width:2; stroke-opacity:0.1; fill:none" points="6456.71,6961.74 6456.71,127.477 "/>
<polyline clip-path="url(#clip322)" style="stroke:#000000; stroke-linecap:round; stroke-linejoin:round; stroke-width:2; stroke-opacity:0.1; fill:none" points="7217.89,6961.74 7217.89,127.477 "/>
<polyline clip-path="url(#clip322)" style="stroke:#000000; stroke-linecap:round; stroke-linejoin:round; stroke-width:2; stroke-opacity:0.1; fill:none" points="7979.07,6961.74 7979.07,127.477 "/>
<polyline clip-path="url(#clip322)" style="stroke:#000000; stroke-linecap:round; stroke-linejoin:round; stroke-width:2; stroke-opacity:0.1; fill:none" points="8740.25,6961.74 8740.25,127.477 "/>
<polyline clip-path="url(#clip320)" style="stroke:#000000; stroke-linecap:round; stroke-linejoin:round; stroke-width:4; stroke-opacity:1; fill:none" points="315.963,6961.74 9552.76,6961.74 "/>
<polyline clip-path="url(#clip320)" style="stroke:#000000; stroke-linecap:round; stroke-linejoin:round; stroke-width:4; stroke-opacity:1; fill:none" points="1128.47,6961.74 1128.47,6942.85 "/>
<polyline clip-path="url(#clip320)" style="stroke:#000000; stroke-linecap:round; stroke-linejoin:round; stroke-width:4; stroke-opacity:1; fill:none" points="1889.65,6961.74 1889.65,6942.85 "/>
<polyline clip-path="url(#clip320)" style="stroke:#000000; stroke-linecap:round; stroke-linejoin:round; stroke-width:4; stroke-opacity:1; fill:none" points="2650.83,6961.74 2650.83,6942.85 "/>
<polyline clip-path="url(#clip320)" style="stroke:#000000; stroke-linecap:round; stroke-linejoin:round; stroke-width:4; stroke-opacity:1; fill:none" points="3412.01,6961.74 3412.01,6942.85 "/>
<polyline clip-path="url(#clip320)" style="stroke:#000000; stroke-linecap:round; stroke-linejoin:round; stroke-width:4; stroke-opacity:1; fill:none" points="4173.18,6961.74 4173.18,6942.85 "/>
<polyline clip-path="url(#clip320)" style="stroke:#000000; stroke-linecap:round; stroke-linejoin:round; stroke-width:4; stroke-opacity:1; fill:none" points="4934.36,6961.74 4934.36,6942.85 "/>
<polyline clip-path="url(#clip320)" style="stroke:#000000; stroke-linecap:round; stroke-linejoin:round; stroke-width:4; stroke-opacity:1; fill:none" points="5695.54,6961.74 5695.54,6942.85 "/>
<polyline clip-path="url(#clip320)" style="stroke:#000000; stroke-linecap:round; stroke-linejoin:round; stroke-width:4; stroke-opacity:1; fill:none" points="6456.71,6961.74 6456.71,6942.85 "/>
<polyline clip-path="url(#clip320)" style="stroke:#000000; stroke-linecap:round; stroke-linejoin:round; stroke-width:4; stroke-opacity:1; fill:none" points="7217.89,6961.74 7217.89,6942.85 "/>
<polyline clip-path="url(#clip320)" style="stroke:#000000; stroke-linecap:round; stroke-linejoin:round; stroke-width:4; stroke-opacity:1; fill:none" points="7979.07,6961.74 7979.07,6942.85 "/>
<polyline clip-path="url(#clip320)" style="stroke:#000000; stroke-linecap:round; stroke-linejoin:round; stroke-width:4; stroke-opacity:1; fill:none" points="8740.25,6961.74 8740.25,6942.85 "/>
<g clip-path="url(#clip320)">
<text style="fill:#000000; fill-opacity:1; font-family:Century Gothic,CenturyGothic,AppleGothic,sans-serif; font-size:47px; text-anchor:middle;" transform="rotate(0, 1128.47, 7080.61)" x="1128.47" y="7080.61">アズマリムMk-Ⅱ</text>
</g>
<g clip-path="url(#clip320)">
<text style="fill:#000000; fill-opacity:1; font-family:Century Gothic,CenturyGothic,AppleGothic,sans-serif; font-size:47px; text-anchor:middle;" transform="rotate(0, 1889.65, 7080.61)" x="1889.65" y="7080.61">coeavatar実況プレイ</text>
</g>
<g clip-path="url(#clip320)">
<text style="fill:#000000; fill-opacity:1; font-family:Century Gothic,CenturyGothic,AppleGothic,sans-serif; font-size:47px; text-anchor:middle;" transform="rotate(0, 2650.83, 7080.61)" x="2650.83" y="7080.61">CoeAvatar</text>
</g>
<g clip-path="url(#clip320)">
<text style="fill:#000000; fill-opacity:1; font-family:Century Gothic,CenturyGothic,AppleGothic,sans-serif; font-size:47px; text-anchor:middle;" transform="rotate(0, 3412.01, 7080.61)" x="3412.01" y="7080.61">初見実況プレイ</text>
</g>
<g clip-path="url(#clip320)">
<text style="fill:#000000; fill-opacity:1; font-family:Century Gothic,CenturyGothic,AppleGothic,sans-serif; font-size:47px; text-anchor:middle;" transform="rotate(0, 4173.18, 7080.61)" x="4173.18" y="7080.61">夜語トバリ</text>
</g>
<g clip-path="url(#clip320)">
<text style="fill:#000000; fill-opacity:1; font-family:Century Gothic,CenturyGothic,AppleGothic,sans-serif; font-size:47px; text-anchor:middle;" transform="rotate(0, 4934.36, 7080.61)" x="4934.36" y="7080.61">夜語トバリ実況プレイ</text>
</g>
<g clip-path="url(#clip320)">
<text style="fill:#000000; fill-opacity:1; font-family:Century Gothic,CenturyGothic,AppleGothic,sans-serif; font-size:47px; text-anchor:middle;" transform="rotate(0, 5695.54, 7080.61)" x="5695.54" y="7080.61">ギャラ子</text>
</g>
<g clip-path="url(#clip320)">
<text style="fill:#000000; fill-opacity:1; font-family:Century Gothic,CenturyGothic,AppleGothic,sans-serif; font-size:47px; text-anchor:middle;" transform="rotate(0, 6456.71, 7080.61)" x="6456.71" y="7080.61">ギャラ子talk</text>
</g>
<g clip-path="url(#clip320)">
<text style="fill:#000000; fill-opacity:1; font-family:Century Gothic,CenturyGothic,AppleGothic,sans-serif; font-size:47px; text-anchor:middle;" transform="rotate(0, 7217.89, 7080.61)" x="7217.89" y="7080.61">VOICEROID遊劇場</text>
</g>
<g clip-path="url(#clip320)">
<text style="fill:#000000; fill-opacity:1; font-family:Century Gothic,CenturyGothic,AppleGothic,sans-serif; font-size:47px; text-anchor:middle;" transform="rotate(0, 7979.07, 7080.61)" x="7979.07" y="7080.61">ゆかあか実況プレイ</text>
</g>
<g clip-path="url(#clip320)">
<text style="fill:#000000; fill-opacity:1; font-family:Century Gothic,CenturyGothic,AppleGothic,sans-serif; font-size:47px; text-anchor:middle;" transform="rotate(0, 8740.25, 7080.61)" x="8740.25" y="7080.61">初見プレイ</text>
</g>
<g clip-path="url(#clip320)">
<text style="fill:#000000; fill-opacity:1; font-family:Century Gothic,CenturyGothic,AppleGothic,sans-serif; font-size:65px; text-anchor:middle;" transform="rotate(0, 4934.36, 7212.83)" x="4934.36" y="7212.83">タグ</text>
</g>
<polyline clip-path="url(#clip322)" style="stroke:#000000; stroke-linecap:round; stroke-linejoin:round; stroke-width:2; stroke-opacity:0.1; fill:none" points="315.963,6961.74 9552.76,6961.74 "/>
<polyline clip-path="url(#clip322)" style="stroke:#000000; stroke-linecap:round; stroke-linejoin:round; stroke-width:2; stroke-opacity:0.1; fill:none" points="315.963,5253.18 9552.76,5253.18 "/>
<polyline clip-path="url(#clip322)" style="stroke:#000000; stroke-linecap:round; stroke-linejoin:round; stroke-width:2; stroke-opacity:0.1; fill:none" points="315.963,3544.61 9552.76,3544.61 "/>
<polyline clip-path="url(#clip322)" style="stroke:#000000; stroke-linecap:round; stroke-linejoin:round; stroke-width:2; stroke-opacity:0.1; fill:none" points="315.963,1836.04 9552.76,1836.04 "/>
<polyline clip-path="url(#clip320)" style="stroke:#000000; stroke-linecap:round; stroke-linejoin:round; stroke-width:4; stroke-opacity:1; fill:none" points="315.963,6961.74 315.963,127.477 "/>
<polyline clip-path="url(#clip320)" style="stroke:#000000; stroke-linecap:round; stroke-linejoin:round; stroke-width:4; stroke-opacity:1; fill:none" points="315.963,6961.74 334.861,6961.74 "/>
<polyline clip-path="url(#clip320)" style="stroke:#000000; stroke-linecap:round; stroke-linejoin:round; stroke-width:4; stroke-opacity:1; fill:none" points="315.963,5253.18 334.861,5253.18 "/>
<polyline clip-path="url(#clip320)" style="stroke:#000000; stroke-linecap:round; stroke-linejoin:round; stroke-width:4; stroke-opacity:1; fill:none" points="315.963,3544.61 334.861,3544.61 "/>
<polyline clip-path="url(#clip320)" style="stroke:#000000; stroke-linecap:round; stroke-linejoin:round; stroke-width:4; stroke-opacity:1; fill:none" points="315.963,1836.04 334.861,1836.04 "/>
<g clip-path="url(#clip320)">
<text style="fill:#000000; fill-opacity:1; font-family:Century Gothic,CenturyGothic,AppleGothic,sans-serif; font-size:47px; text-anchor:middle;" transform="rotate(0, 126.685, 6979.24)" x="126.685" y="6979.24">0.00</text>
</g>
<g clip-path="url(#clip320)">
<text style="fill:#000000; fill-opacity:1; font-family:Century Gothic,CenturyGothic,AppleGothic,sans-serif; font-size:47px; text-anchor:middle;" transform="rotate(0, 126.685, 5270.68)" x="126.685" y="5270.68">0.05</text>
</g>
<g clip-path="url(#clip320)">
<text style="fill:#000000; fill-opacity:1; font-family:Century Gothic,CenturyGothic,AppleGothic,sans-serif; font-size:47px; text-anchor:middle;" transform="rotate(0, 126.685, 3562.11)" x="126.685" y="3562.11">0.10</text>
</g>
<g clip-path="url(#clip320)">
<text style="fill:#000000; fill-opacity:1; font-family:Century Gothic,CenturyGothic,AppleGothic,sans-serif; font-size:47px; text-anchor:middle;" transform="rotate(0, 126.685, 1853.54)" x="126.685" y="1853.54">0.15</text>
</g>
<g clip-path="url(#clip320)">
<text style="fill:#000000; fill-opacity:1; font-family:Century Gothic,CenturyGothic,AppleGothic,sans-serif; font-size:65px; text-anchor:middle;" transform="rotate(-90, -72.5487, 3544.61)" x="-72.5487" y="3544.61">value/1k view</text>
</g>
<g clip-path="url(#clip320)">
<text style="fill:#000000; fill-opacity:1; font-family:Century Gothic,CenturyGothic,AppleGothic,sans-serif; font-size:81px; text-anchor:middle;" transform="rotate(0, 4934.36, 72)" x="4934.36" y="72">ac6 reactions / 1k view</text>
</g>
<path clip-path="url(#clip322)" d="M824.003 5985.42 L824.003 6961.74 L1432.94 6961.74 L1432.94 5985.42 L824.003 5985.42 L824.003 5985.42  Z" fill="#009af9" fill-rule="evenodd" fill-opacity="1"/>
<polyline clip-path="url(#clip322)" style="stroke:#000000; stroke-linecap:round; stroke-linejoin:round; stroke-width:4; stroke-opacity:1; fill:none" points="824.003,5985.42 824.003,6961.74 1432.94,6961.74 1432.94,5985.42 824.003,5985.42 "/>
<path clip-path="url(#clip322)" d="M1585.18 5985.42 L1585.18 6961.74 L2194.12 6961.74 L2194.12 5985.42 L1585.18 5985.42 L1585.18 5985.42  Z" fill="#009af9" fill-rule="evenodd" fill-opacity="1"/>
<polyline clip-path="url(#clip322)" style="stroke:#000000; stroke-linecap:round; stroke-linejoin:round; stroke-width:4; stroke-opacity:1; fill:none" points="1585.18,5985.42 1585.18,6961.74 2194.12,6961.74 2194.12,5985.42 1585.18,5985.42 "/>
<path clip-path="url(#clip322)" d="M2346.36 5985.42 L2346.36 6961.74 L2955.3 6961.74 L2955.3 5985.42 L2346.36 5985.42 L2346.36 5985.42  Z" fill="#009af9" fill-rule="evenodd" fill-opacity="1"/>
<polyline clip-path="url(#clip322)" style="stroke:#000000; stroke-linecap:round; stroke-linejoin:round; stroke-width:4; stroke-opacity:1; fill:none" points="2346.36,5985.42 2346.36,6961.74 2955.3,6961.74 2955.3,5985.42 2346.36,5985.42 "/>
<path clip-path="url(#clip322)" d="M3107.53 5647.46 L3107.53 6961.74 L3716.48 6961.74 L3716.48 5647.46 L3107.53 5647.46 L3107.53 5647.46  Z" fill="#009af9" fill-rule="evenodd" fill-opacity="1"/>
<polyline clip-path="url(#clip322)" style="stroke:#000000; stroke-linecap:round; stroke-linejoin:round; stroke-width:4; stroke-opacity:1; fill:none" points="3107.53,5647.46 3107.53,6961.74 3716.48,6961.74 3716.48,5647.46 3107.53,5647.46 "/>
<path clip-path="url(#clip322)" d="M3868.71 5647.46 L3868.71 6961.74 L4477.65 6961.74 L4477.65 5647.46 L3868.71 5647.46 L3868.71 5647.46  Z" fill="#009af9" fill-rule="evenodd" fill-opacity="1"/>
<polyline clip-path="url(#clip322)" style="stroke:#000000; stroke-linecap:round; stroke-linejoin:round; stroke-width:4; stroke-opacity:1; fill:none" points="3868.71,5647.46 3868.71,6961.74 4477.65,6961.74 4477.65,5647.46 3868.71,5647.46 "/>
<path clip-path="url(#clip322)" d="M4629.89 5647.46 L4629.89 6961.74 L5238.83 6961.74 L5238.83 5647.46 L4629.89 5647.46 L4629.89 5647.46  Z" fill="#009af9" fill-rule="evenodd" fill-opacity="1"/>
<polyline clip-path="url(#clip322)" style="stroke:#000000; stroke-linecap:round; stroke-linejoin:round; stroke-width:4; stroke-opacity:1; fill:none" points="4629.89,5647.46 4629.89,6961.74 5238.83,6961.74 5238.83,5647.46 4629.89,5647.46 "/>
<path clip-path="url(#clip322)" d="M5391.07 5594.89 L5391.07 6961.74 L6000.01 6961.74 L6000.01 5594.89 L5391.07 5594.89 L5391.07 5594.89  Z" fill="#009af9" fill-rule="evenodd" fill-opacity="1"/>
<polyline clip-path="url(#clip322)" style="stroke:#000000; stroke-linecap:round; stroke-linejoin:round; stroke-width:4; stroke-opacity:1; fill:none" points="5391.07,5594.89 5391.07,6961.74 6000.01,6961.74 6000.01,5594.89 5391.07,5594.89 "/>
<path clip-path="url(#clip322)" d="M6152.24 5594.89 L6152.24 6961.74 L6761.18 6961.74 L6761.18 5594.89 L6152.24 5594.89 L6152.24 5594.89  Z" fill="#009af9" fill-rule="evenodd" fill-opacity="1"/>
<polyline clip-path="url(#clip322)" style="stroke:#000000; stroke-linecap:round; stroke-linejoin:round; stroke-width:4; stroke-opacity:1; fill:none" points="6152.24,5594.89 6152.24,6961.74 6761.18,6961.74 6761.18,5594.89 6152.24,5594.89 "/>
<path clip-path="url(#clip322)" d="M6913.42 5359.96 L6913.42 6961.74 L7522.36 6961.74 L7522.36 5359.96 L6913.42 5359.96 L6913.42 5359.96  Z" fill="#009af9" fill-rule="evenodd" fill-opacity="1"/>
<polyline clip-path="url(#clip322)" style="stroke:#000000; stroke-linecap:round; stroke-linejoin:round; stroke-width:4; stroke-opacity:1; fill:none" points="6913.42,5359.96 6913.42,6961.74 7522.36,6961.74 7522.36,5359.96 6913.42,5359.96 "/>
<path clip-path="url(#clip322)" d="M7674.6 5063.34 L7674.6 6961.74 L8283.54 6961.74 L8283.54 5063.34 L7674.6 5063.34 L7674.6 5063.34  Z" fill="#009af9" fill-rule="evenodd" fill-opacity="1"/>
<polyline clip-path="url(#clip322)" style="stroke:#000000; stroke-linecap:round; stroke-linejoin:round; stroke-width:4; stroke-opacity:1; fill:none" points="7674.6,5063.34 7674.6,6961.74 8283.54,6961.74 8283.54,5063.34 7674.6,5063.34 "/>
<path clip-path="url(#clip322)" d="M8435.77 127.477 L8435.77 6961.74 L9044.72 6961.74 L9044.72 127.477 L8435.77 127.477 L8435.77 127.477  Z" fill="#009af9" fill-rule="evenodd" fill-opacity="1"/>
<polyline clip-path="url(#clip322)" style="stroke:#000000; stroke-linecap:round; stroke-linejoin:round; stroke-width:4; stroke-opacity:1; fill:none" points="8435.77,127.477 8435.77,6961.74 9044.72,6961.74 9044.72,127.477 8435.77,127.477 "/>
<circle clip-path="url(#clip322)" style="fill:#009af9; stroke:none; fill-opacity:0" cx="1128.47" cy="5985.42" r="2"/>
<circle clip-path="url(#clip322)" style="fill:#009af9; stroke:none; fill-opacity:0" cx="1889.65" cy="5985.42" r="2"/>
<circle clip-path="url(#clip322)" style="fill:#009af9; stroke:none; fill-opacity:0" cx="2650.83" cy="5985.42" r="2"/>
<circle clip-path="url(#clip322)" style="fill:#009af9; stroke:none; fill-opacity:0" cx="3412.01" cy="5647.46" r="2"/>
<circle clip-path="url(#clip322)" style="fill:#009af9; stroke:none; fill-opacity:0" cx="4173.18" cy="5647.46" r="2"/>
<circle clip-path="url(#clip322)" style="fill:#009af9; stroke:none; fill-opacity:0" cx="4934.36" cy="5647.46" r="2"/>
<circle clip-path="url(#clip322)" style="fill:#009af9; stroke:none; fill-opacity:0" cx="5695.54" cy="5594.89" r="2"/>
<circle clip-path="url(#clip322)" style="fill:#009af9; stroke:none; fill-opacity:0" cx="6456.71" cy="5594.89" r="2"/>
<circle clip-path="url(#clip322)" style="fill:#009af9; stroke:none; fill-opacity:0" cx="7217.89" cy="5359.96" r="2"/>
<circle clip-path="url(#clip322)" style="fill:#009af9; stroke:none; fill-opacity:0" cx="7979.07" cy="5063.34" r="2"/>
<circle clip-path="url(#clip322)" style="fill:#009af9; stroke:none; fill-opacity:0" cx="8740.25" cy="127.477" r="2"/>
<path clip-path="url(#clip320)" d="M623.856 453.548 L1747.19 453.548 L1747.19 355.286 L623.856 355.286  Z" fill="#ffffff" fill-rule="evenodd" fill-opacity="1"/>
<polyline clip-path="url(#clip320)" style="stroke:#000000; stroke-linecap:round; stroke-linejoin:round; stroke-width:4; stroke-opacity:1; fill:none" points="623.856,453.548 1747.19,453.548 1747.19,355.286 623.856,355.286 623.856,453.548 "/>
<path clip-path="url(#clip320)" d="M726.487 424.07 L1342.27 424.07 L1342.27 384.765 L726.487 384.765 L726.487 424.07  Z" fill="#009af9" fill-rule="evenodd" fill-opacity="1"/>
<polyline clip-path="url(#clip320)" style="stroke:#000000; stroke-linecap:round; stroke-linejoin:round; stroke-width:4; stroke-opacity:1; fill:none" points="726.487,424.07 1342.27,424.07 1342.27,384.765 726.487,384.765 726.487,424.07 "/>
<g clip-path="url(#clip320)">
<text style="fill:#000000; fill-opacity:1; font-family:Century Gothic,CenturyGothic,AppleGothic,sans-serif; font-size:47px; text-anchor:start;" transform="rotate(0, 1444.9, 421.917)" x="1444.9" y="421.917">[&quot;マイリスト&quot;]</text>
</g>
</svg>
